<?xml version="1.0" encoding="UTF-8" standalone="no"?>
<!-- Created with Inkscape (http://www.inkscape.org/) -->

<svg
   width="70mm"
   height="71mm"
   viewBox="0 0 70 71"
   version="1.1"
   id="svg5"
   inkscape:version="1.2.2 (732a01da63, 2022-12-09)"
   sodipodi:docname="logo.svg"
   xmlns:inkscape="http://www.inkscape.org/namespaces/inkscape"
   xmlns:sodipodi="http://sodipodi.sourceforge.net/DTD/sodipodi-0.dtd"
   xmlns="http://www.w3.org/2000/svg"
   xmlns:svg="http://www.w3.org/2000/svg">
  <sodipodi:namedview
     id="namedview7"
     pagecolor="#ffffff"
     bordercolor="#000000"
     borderopacity="0.25"
     inkscape:showpageshadow="2"
     inkscape:pageopacity="0.0"
     inkscape:pagecheckerboard="0"
     inkscape:deskcolor="#d1d1d1"
     inkscape:document-units="mm"
     showgrid="false"
     inkscape:zoom="0.70710678"
     inkscape:cx="554.37172"
     inkscape:cy="344.361"
     inkscape:window-width="1717"
     inkscape:window-height="1360"
     inkscape:window-x="-7"
     inkscape:window-y="0"
     inkscape:window-maximized="0"
     inkscape:current-layer="layer1" />
  <defs
     id="defs2">
    <rect
       x="198.38103"
       y="175.42786"
       width="417.52924"
       height="160.67224"
       id="rect292" />
    <rect
       x="214.22966"
       y="191.27647"
       width="373.8089"
       height="122.41694"
       id="rect236" />
  </defs>
  <g
     inkscape:label="Layer 1"
     inkscape:groupmode="layer"
     id="layer1">
    <path
       style="fill:none;fill-opacity:1;stroke:#000000;stroke-width:0.765;stroke-linejoin:round;stroke-dasharray:none;stroke-opacity:1"
       d="M 41.583388,59.829107 13.82526,59.819952 41.598794,10.31449 55.470155,35.076384 27.712027,35.067229 41.583388,59.82912 55.470155,35.076392"
       id="path4168" />
    <path
       style="fill:#d45500;fill-opacity:1;stroke:#000000;stroke-width:0.0450866;stroke-linejoin:round;stroke-dasharray:none;stroke-opacity:1"
       d="m 34.74168,47.369047 -6.804765,-12.160924 6.822839,-0.01844 c 3.752562,-0.01013 9.89802,-0.01013 13.656572,0 l 6.833732,0.01844 -6.815656,12.161461 c -3.748614,6.688804 -6.831925,12.161221 -6.851809,12.160925 -0.01987,-2.65e-4 -3.098292,-5.472954 -6.840913,-12.161462 z"
       id="path9908" />
    <path
       style="fill:#d4aa00;fill-opacity:1;stroke:#000000;stroke-width:0.0450866;stroke-linejoin:round;stroke-dasharray:none;stroke-opacity:1"
       d="m 14.726848,58.46999 c 0.373999,-0.666044 3.438139,-6.130869 6.809195,-12.144057 3.371056,-6.013186 6.147721,-10.933967 6.170364,-10.935065 0.02265,-0.0011 2.770198,4.869979 6.105676,10.82462 3.335477,5.954638 6.397249,11.420363 6.80394,12.146055 l 0.739434,1.319437 H 27.70115 14.046845 Z"
       id="path9910" />
    <path
       style="fill:#ff7f2a;fill-opacity:1;stroke:#000000;stroke-width:0.0450866;stroke-linejoin:round;stroke-dasharray:none;stroke-opacity:1"
       d="M 40.996118,58.395325 C 40.693437,57.849873 39.54137,55.793158 38.435967,53.824846 34.598234,46.99127 28.062877,35.303738 28.062877,35.274088 c 0,-0.0164 6.087354,-0.02981 13.527453,-0.02981 12.413755,0 13.523769,0.0096 13.482719,0.116572 -0.04219,0.10994 -4.26634,7.657923 -10.625045,18.985508 -1.556094,2.772071 -2.845527,5.040257 -2.865411,5.040416 -0.01987,1.42e-4 -0.283794,-0.445995 -0.586475,-0.991444 z"
       id="path9981" />
    <path
       style="fill:#d40000;fill-opacity:1;stroke:#000000;stroke-width:0.0450866;stroke-linejoin:round;stroke-dasharray:none;stroke-opacity:1"
       d="m 28.048389,34.720112 c 0.07805,-0.129233 3.142022,-5.586825 6.808832,-12.127981 3.666813,-6.541159 6.688214,-11.915048 6.714226,-11.94198 0.03571,-0.03697 7.094804,12.496522 13.409866,23.809357 l 0.276638,0.495572 H 41.582218 27.906487 Z"
       id="path10052" />
    <text
       xml:space="preserve"
       style="font-style:normal;font-variant:normal;font-weight:bold;font-stretch:normal;font-size:9.87778px;font-family:Quicksand;-inkscape-font-specification:'Quicksand, Bold';font-variant-ligatures:normal;font-variant-caps:normal;font-variant-numeric:normal;font-variant-east-asian:normal;fill:#0e0e0e;fill-opacity:1;stroke:none;stroke-width:0.765;stroke-linejoin:round;stroke-dasharray:none;stroke-opacity:1"
       x="24.434948"
       y="53.7887"
       id="text10177"><tspan
         sodipodi:role="line"
         id="tspan10175"
         style="font-size:9.87778px;fill:#0e0e0e;fill-opacity:1;stroke:none;stroke-width:0.765"
         x="24.434948"
         y="53.7887">D</tspan></text>
    <text
       xml:space="preserve"
       style="font-style:normal;font-variant:normal;font-weight:bold;font-stretch:normal;font-size:9.87777px;font-family:Quicksand;-inkscape-font-specification:'Quicksand, Bold';font-variant-ligatures:normal;font-variant-caps:normal;font-variant-numeric:normal;font-variant-east-asian:normal;fill:#0e0e0e;fill-opacity:1;stroke:none;stroke-width:0.765;stroke-linejoin:round;stroke-dasharray:none;stroke-opacity:1"
       x="37.676575"
       y="47.41444"
       id="text11111"><tspan
         sodipodi:role="line"
         id="tspan11109"
         style="stroke-width:0.765"
         x="37.676575"
         y="47.41444">U</tspan></text>
    <text
       xml:space="preserve"
       style="font-style:normal;font-variant:normal;font-weight:bold;font-stretch:normal;font-size:9.87777px;font-family:Quicksand;-inkscape-font-specification:'Quicksand, Bold';font-variant-ligatures:normal;font-variant-caps:normal;font-variant-numeric:normal;font-variant-east-asian:normal;fill:#0e0e0e;fill-opacity:1;stroke:none;stroke-width:0.765;stroke-linejoin:round;stroke-dasharray:none;stroke-opacity:1"
       x="38.332436"
       y="29.496586"
       id="text11115"><tspan
         sodipodi:role="line"
         id="tspan11113"
         style="stroke-width:0.765"
         x="38.332436"
         y="29.496586">B</tspan></text>
  </g>
</svg>
